<mxfile host="Electron" agent="Mozilla/5.0 (Macintosh; Intel Mac OS X 10_15_7) AppleWebKit/537.36 (KHTML, like Gecko) draw.io/27.0.5 Chrome/134.0.6998.205 Electron/35.3.0 Safari/537.36" version="27.0.5">
  <diagram name="Pagina-1" id="jNYxETqFtu4Mp3Ktvi_Z">
    <mxGraphModel dx="406" dy="225" grid="1" gridSize="10" guides="1" tooltips="1" connect="1" arrows="1" fold="1" page="1" pageScale="1" pageWidth="1169" pageHeight="1654" math="0" shadow="0">
      <root>
        <mxCell id="0" />
        <mxCell id="1" parent="0" />
        <mxCell id="Og6210OeY6-F-Z8PjsUv-2" value="" style="ellipse;whiteSpace=wrap;html=1;aspect=fixed;fillColor=none;strokeWidth=2;" parent="1" vertex="1">
          <mxGeometry x="70" y="120" width="180" height="180" as="geometry" />
        </mxCell>
        <mxCell id="Og6210OeY6-F-Z8PjsUv-3" value="" style="ellipse;whiteSpace=wrap;html=1;aspect=fixed;fillColor=none;strokeWidth=2;" parent="1" vertex="1">
          <mxGeometry x="170" y="240" width="150" height="150" as="geometry" />
        </mxCell>
        <mxCell id="Og6210OeY6-F-Z8PjsUv-4" value="" style="ellipse;whiteSpace=wrap;html=1;aspect=fixed;fillColor=none;strokeWidth=2;" parent="1" vertex="1">
          <mxGeometry x="240" y="80" width="250" height="250" as="geometry" />
        </mxCell>
        <mxCell id="Og6210OeY6-F-Z8PjsUv-5" value="" style="ellipse;whiteSpace=wrap;html=1;aspect=fixed;strokeWidth=3;fillColor=none;strokeColor=light-dark(#ff0000, #ededed);" parent="1" vertex="1">
          <mxGeometry x="238" y="234" width="13" height="13" as="geometry" />
        </mxCell>
        <mxCell id="Og6210OeY6-F-Z8PjsUv-6" value="" style="endArrow=none;html=1;rounded=0;entryX=0.5;entryY=0.5;entryDx=0;entryDy=0;exitX=0.5;exitY=0.444;exitDx=0;exitDy=0;exitPerimeter=0;entryPerimeter=0;strokeWidth=2;strokeColor=light-dark(#007ea8, #ededed);" parent="1" source="Og6210OeY6-F-Z8PjsUv-2" target="Og6210OeY6-F-Z8PjsUv-5" edge="1">
          <mxGeometry width="50" height="50" relative="1" as="geometry">
            <mxPoint x="130" y="230" as="sourcePoint" />
            <mxPoint x="180" y="180" as="targetPoint" />
          </mxGeometry>
        </mxCell>
        <mxCell id="Og6210OeY6-F-Z8PjsUv-12" value="&lt;font&gt;d&lt;/font&gt;&lt;font style=&quot;font-size: 13px;&quot;&gt;2&lt;/font&gt;" style="edgeLabel;html=1;align=center;verticalAlign=middle;resizable=0;points=[];fontFamily=DIN Alternate;fontSize=21;" parent="Og6210OeY6-F-Z8PjsUv-6" vertex="1" connectable="0">
          <mxGeometry x="-0.0287" y="3" relative="1" as="geometry">
            <mxPoint as="offset" />
          </mxGeometry>
        </mxCell>
        <mxCell id="Og6210OeY6-F-Z8PjsUv-7" value="" style="endArrow=none;html=1;rounded=0;strokeWidth=2;strokeColor=light-dark(#007ea8, #ededed);entryX=0.154;entryY=0.462;entryDx=0;entryDy=0;entryPerimeter=0;startSize=6;jumpSize=6;endSize=6;" parent="1" edge="1">
          <mxGeometry width="50" height="50" relative="1" as="geometry">
            <mxPoint x="365" y="200" as="sourcePoint" />
            <mxPoint x="244.00200000000007" y="239.99599999999998" as="targetPoint" />
          </mxGeometry>
        </mxCell>
        <mxCell id="Og6210OeY6-F-Z8PjsUv-13" value="&lt;font style=&quot;&quot;&gt;&lt;font style=&quot;font-size: 21px;&quot;&gt;d&lt;/font&gt;&lt;font style=&quot;font-size: 13px;&quot;&gt;1&lt;/font&gt;&lt;/font&gt;" style="edgeLabel;html=1;align=center;verticalAlign=middle;resizable=0;points=[];fontFamily=DIN Alternate;" parent="Og6210OeY6-F-Z8PjsUv-7" vertex="1" connectable="0">
          <mxGeometry x="-0.0029" y="-1" relative="1" as="geometry">
            <mxPoint as="offset" />
          </mxGeometry>
        </mxCell>
        <mxCell id="Og6210OeY6-F-Z8PjsUv-8" value="" style="endArrow=none;html=1;rounded=0;entryX=0.497;entryY=0.533;entryDx=0;entryDy=0;entryPerimeter=0;strokeWidth=2;strokeColor=light-dark(#007ea8, #ededed);" parent="1" target="Og6210OeY6-F-Z8PjsUv-3" edge="1">
          <mxGeometry width="50" height="50" relative="1" as="geometry">
            <mxPoint x="245" y="240" as="sourcePoint" />
            <mxPoint x="287.5" y="335.5" as="targetPoint" />
          </mxGeometry>
        </mxCell>
        <mxCell id="Og6210OeY6-F-Z8PjsUv-14" value="&lt;font style=&quot;&quot;&gt;&lt;font style=&quot;font-size: 21px;&quot;&gt;d&lt;/font&gt;&lt;font style=&quot;font-size: 13px;&quot;&gt;3&lt;/font&gt;&lt;/font&gt;" style="edgeLabel;html=1;align=center;verticalAlign=middle;resizable=0;points=[];fontFamily=DIN Alternate;" parent="Og6210OeY6-F-Z8PjsUv-8" vertex="1" connectable="0">
          <mxGeometry x="0.2112" y="-1" relative="1" as="geometry">
            <mxPoint as="offset" />
          </mxGeometry>
        </mxCell>
        <mxCell id="Og6210OeY6-F-Z8PjsUv-9" value="&lt;font&gt;&lt;span&gt;(x&lt;/span&gt;&lt;font style=&quot;font-size: 15px;&quot;&gt;2&lt;/font&gt;&lt;span&gt;, y&lt;/span&gt;&lt;font style=&quot;font-size: 15px;&quot;&gt;2&lt;/font&gt;&lt;span&gt;)&lt;/span&gt;&lt;/font&gt;" style="text;html=1;align=center;verticalAlign=middle;whiteSpace=wrap;rounded=0;fontFamily=DIN Alternate;fontSize=29;" parent="1" vertex="1">
          <mxGeometry x="110" y="170" width="100" height="30" as="geometry" />
        </mxCell>
        <mxCell id="Og6210OeY6-F-Z8PjsUv-10" value="&lt;font&gt;&lt;span&gt;(x&lt;/span&gt;&lt;font style=&quot;font-size: 15px;&quot;&gt;1&lt;/font&gt;&lt;span&gt;, y&lt;/span&gt;&lt;font style=&quot;font-size: 15px;&quot;&gt;1&lt;/font&gt;&lt;span&gt;)&lt;/span&gt;&lt;/font&gt;" style="text;html=1;align=center;verticalAlign=middle;whiteSpace=wrap;rounded=0;fontFamily=DIN Alternate;fontSize=29;" parent="1" vertex="1">
          <mxGeometry x="310" y="170" width="110" height="30" as="geometry" />
        </mxCell>
        <mxCell id="Og6210OeY6-F-Z8PjsUv-11" value="&lt;font&gt;&lt;span&gt;(x&lt;/span&gt;&lt;font style=&quot;font-size: 15px;&quot;&gt;3&lt;/font&gt;&lt;span&gt;, y&lt;/span&gt;&lt;font style=&quot;font-size: 15px;&quot;&gt;3&lt;/font&gt;&lt;span&gt;)&lt;/span&gt;&lt;/font&gt;" style="text;html=1;align=center;verticalAlign=middle;whiteSpace=wrap;rounded=0;fontFamily=DIN Alternate;fontSize=29;" parent="1" vertex="1">
          <mxGeometry x="190" y="320" width="110" height="30" as="geometry" />
        </mxCell>
        <mxCell id="Og6210OeY6-F-Z8PjsUv-15" value="Target" style="text;html=1;align=center;verticalAlign=middle;whiteSpace=wrap;rounded=0;fontSize=20;fontColor=light-dark(#ff0000, #ededed);fontFamily=DIN Alternate;" parent="1" vertex="1">
          <mxGeometry x="253" y="239" width="55" height="24.5" as="geometry" />
        </mxCell>
      </root>
    </mxGraphModel>
  </diagram>
</mxfile>
